# xmcd
#
# Track frame offsets:
#	150
#	11620
#	21786
#	34400
#	52059
#	62007
#	69632
#	88038
#	101676
#	110595
#	120936
#	131849
#	141461
#	151927
#
# Disc length: 2247 seconds
#
# Revision: 1
# Processed by: cddbd v1.5.1PL0 Copyright (c) Steve Scherf et al.
# Submitted via: audiograbber 1.83.01
#
DISCID=c608c50e
DTITLE=Zeno Tornado and the Boney Google Brothers - Zeno Tornado and the Boney Goog
DTITLE=le Brothers
DYEAR=2003
DGENRE=Bluegrass
TTITLE0=High
TTITLE1=I love it
TTITLE2=City light
TTITLE3=Hanging loose
TTITLE4=Blah blah baby
TTITLE5=Liver lover
TTITLE6=Love
TTITLE7=Highway man
TTITLE8=Road movie
TTITLE9=Live's a pissing...
TTITLE10=Family man
TTITLE11=The Fool
TTITLE12=Vanbang
TTITLE13=Rebel
EXTD=
EXTT0=
EXTT1=
EXTT2=
EXTT3=
EXTT4=
EXTT5=
EXTT6=
EXTT7=
EXTT8=
EXTT9=
EXTT10=
EXTT11=
EXTT12=
EXTT13=
PLAYORDER=
